<?xml version="1.0" standalone="no"?>
<!DOCTYPE svg PUBLIC "-//W3C//DTD SVG 1.1//EN" "http://www.w3.org/Graphics/SVG/1.1/DTD/svg11.dtd" >
<svg xmlns="http://www.w3.org/2000/svg">
<metadata></metadata>
<defs>
<font id="dinregular" horiz-adv-x="1069" >
<font-face units-per-em="2048" ascent="1638" descent="-410" />
<missing-glyph horiz-adv-x="509" />
<glyph horiz-adv-x="2048" />
<glyph horiz-adv-x="2048" />
<glyph unicode="&#xd;" horiz-adv-x="509" />
<glyph unicode=" "  horiz-adv-x="509" />
<glyph unicode="&#x09;" horiz-adv-x="509" />
<glyph unicode="&#xa0;" horiz-adv-x="509" />
<glyph unicode="!" horiz-adv-x="647" d="M440 1458l-22 -1048h-127l-21 1048h170zM442 0h-176v172h176v-172z" />
<glyph unicode="&#x22;" horiz-adv-x="866" d="M686 1110h-162v348h162v-348zM342 1110h-162v348h162v-348z" />
<glyph unicode="#" horiz-adv-x="1337" d="M1233 885h-197l-47 -289h182v-131h-202l-74 -465h-152l74 465h-328l-71 -465h-152l74 465h-182v131h204l48 289h-189v135h207l70 440h153l-71 -440h325l70 440h149l-69 -440h178v-135zM885 885h-326l-47 -289h326z" />
<glyph unicode="$" horiz-adv-x="1220" d="M1106 401q0 -176 -121 -285.5t-326 -123.5v-225h-122v221q-270 12 -451 192l107 107q150 -150 352 -158v543l-41 4q-158 16 -268.5 112.5t-110.5 270.5t110.5 284.5t301.5 124.5v183h122v-183q217 -10 381 -157l-100 -101q-125 113 -287 123v-530l64 -10 q178 -29 264 -103q125 -107 125 -289zM545 817v516q-127 -10 -196.5 -81.5t-69.5 -186.5q0 -113 65 -168q72 -62 201 -80zM950 397q0 119 -71 183q-45 39 -107 55q-25 6 -119 20v-526q139 10 218 80.5t79 187.5z" />
<glyph unicode="%" horiz-adv-x="1705" d="M1575 262q0 -125 -78 -200.5t-199 -75.5t-198.5 75.5t-77.5 200.5v215q0 125 78 201t198 76q121 0 199 -76t78 -201v-215zM1257 1458l-684 -1458h-122l684 1458h122zM686 981q0 -123 -78 -198.5t-198 -75.5q-121 0 -199 75.5t-78 198.5v215q0 125 78 201t199 76 t198.5 -76t77.5 -201v-215zM1458 266v207q0 178 -160 178t-159 -178v-207q0 -178 159 -178q160 0 160 178zM569 985v207q0 178 -159 178q-160 0 -160 -178v-207q0 -176 160 -176q159 0 159 176z" />
<glyph unicode="&#x26;" horiz-adv-x="1513" d="M1374 0h-194l-131 160q-184 -172 -431 -172q-211 0 -335.5 115.5t-124.5 308.5q0 147 98 260q61 72 217 176q-76 92 -106 141q-51 90 -52 176q0 131 91.5 218t230.5 87q137 0 227 -88t90 -219q0 -150 -161 -260q-37 -25 -109 -74l373 -448q80 121 82 334h147 q-4 -289 -135 -447zM809 1163q0 74 -49 124t-123 50t-121 -48t-47 -122q0 -80 131 -239q23 14 78 53q131 90 131 182zM961 266l-402 484q-127 -88 -172 -138q-78 -86 -78 -196q0 -129 86 -210t221 -81q187 0 345 141z" />
<glyph unicode="'" horiz-adv-x="522" d="M342 1110h-162v348h162v-348z" />
<glyph unicode="(" horiz-adv-x="610" d="M479 -92l-100 -101q-63 63 -84 89q-39 43 -64 88q-43 80 -43 211v1069q0 133 43 211q35 63 148 176l100 -101l-63 -63q-29 -35 -47 -70q-33 -66 -33 -166v-1044q0 -100 33 -166q22 -45 110 -133z" />
<glyph unicode=")" horiz-adv-x="610" d="M420 195q0 -135 -41 -211q-35 -63 -148 -177l-104 105l63 63q33 35 50 70q29 57 28 162v1044q0 104 -28 162q-20 41 -113 133l104 105q63 -63 84 -88q39 -43 64 -88q41 -76 41 -211v-1069z" />
<glyph unicode="*" horiz-adv-x="970" d="M834 967l-58 -101l-239 146l8 -281h-119l8 281l-237 -146l-60 101l246 133l-246 135l60 98l237 -145l-8 280h119l-8 -280l239 145l58 -98l-246 -135z" />
<glyph unicode="+" d="M963 479h-359v-360h-137v360h-361v137h361v357h137v-357h359v-137z" />
<glyph unicode="," horiz-adv-x="540" d="M360 -133l-180 -162v475h180v-313z" />
<glyph unicode="-" horiz-adv-x="872" d="M717 483h-561v138h561v-138z" />
<glyph unicode="." horiz-adv-x="552" d="M373 0h-193v193h193v-193z" />
<glyph unicode="/" horiz-adv-x="727" d="M729 1610l-584 -1762h-145l584 1762h145z" />
<glyph unicode="0" d="M934 389q0 -178 -113.5 -289.5t-285.5 -111.5t-286 111.5t-114 289.5v680q0 178 113.5 289.5t286.5 111.5q172 0 285.5 -111.5t113.5 -289.5v-680zM786 397v664q0 123 -66.5 200.5t-184.5 77.5q-119 0 -185.5 -77.5t-66.5 -200.5v-664q0 -123 66.5 -200.5t185.5 -77.5 t185 77.5t66 200.5z" />
<glyph unicode="1" d="M676 0h-148v1294l-272 -239v168l272 235h148v-1458z" />
<glyph unicode="2" d="M944 0h-805v131l576 731q82 104 82 215q0 119 -67.5 190.5t-186.5 71.5q-111 0 -178 -61q-76 -70 -76 -203h-148q0 174 110.5 284.5t291.5 110.5q180 0 290.5 -107.5t110.5 -285.5q0 -145 -117 -295l-510 -651h627v-131z" />
<glyph unicode="3" d="M942 397q0 -195 -125 -307q-117 -104 -303 -104q-182 0 -295 94q-125 100 -133 291h147q8 -129 93 -195q74 -59 188 -59q121 0 201 75.5t80 206.5q0 283 -287 283h-31v129h31q260 0 260 264q0 127 -71.5 196.5t-182.5 69.5q-115 0 -183.5 -65.5t-78.5 -177.5h-148 q12 174 129 276q111 98 281 99q178 0 289.5 -109t111.5 -287q0 -233 -196 -323q223 -85 223 -357z" />
<glyph unicode="4" d="M987 231h-178v-231h-145v231h-582v134l526 1093h158l-526 -1093h424v413h145v-413h178v-134z" />
<glyph unicode="5" d="M946 481q0 -270 -117 -387q-109 -109 -290 -108q-190 0 -293 104q-90 90 -103 254h148q29 -227 248 -227q113 0 180 67q80 80 80 297q0 354 -246 355q-195 0 -242 -144h-133v766h737v-131h-604v-463q90 100 262 101q160 0 252 -93q121 -121 121 -391z" />
<glyph unicode="6" d="M942 420q0 -188 -110.5 -310t-292.5 -122q-184 0 -295 114.5t-111 305.5q0 141 92 327l359 723h151l-325 -655q68 31 153 31q170 0 274.5 -116t104.5 -298zM795 414q0 127 -66 209q-72 86 -192 86q-117 0 -186.5 -80t-69.5 -215q0 -133 69.5 -214t186.5 -81t187.5 81 t70.5 214z" />
<glyph unicode="7" d="M965 1327l-506 -1327h-156l506 1327h-508v-229h-145v360h809v-131z" />
<glyph unicode="8" d="M965 401q0 -182 -123 -297.5t-307 -115.5t-307.5 115.5t-123.5 297.5q0 229 220 355q-190 109 -191 323q0 170 113.5 280.5t288.5 110.5q174 0 287.5 -110.5t113.5 -280.5q0 -215 -188 -323q217 -124 217 -355zM788 1077q0 115 -70.5 188.5t-182.5 73.5 q-113 0 -183.5 -73.5t-70.5 -188.5t70.5 -187.5t183.5 -72.5t183 72.5t70 187.5zM817 403q0 121 -81 203t-201 82q-121 0 -202 -82t-81 -203t81 -202.5t202 -81.5t201.5 81.5t80.5 202.5z" />
<glyph unicode="9" d="M936 1051q0 -141 -92 -328l-359 -723h-153l327 655q-68 -31 -155 -30q-168 0 -272.5 115.5t-104.5 297.5q0 188 110.5 310t292.5 122q184 0 295 -114.5t111 -304.5zM788 1044q0 133 -70.5 214t-187.5 81t-186.5 -80.5t-69.5 -214.5q0 -127 68 -210.5t188 -83.5 q117 0 187.5 79.5t70.5 214.5z" />
<glyph unicode=":" horiz-adv-x="608" d="M428 616h-192v193h192v-193zM428 0h-192v193h192v-193z" />
<glyph unicode=";" horiz-adv-x="608" d="M428 616h-192v193h192v-193zM420 -133l-180 -162v475h180v-313z" />
<glyph unicode="&#x3c;" horiz-adv-x="2103" d="M1991 479h-1616l747 -745h-192l-817 817l817 817h192l-747 -745h1616v-144z" />
<glyph unicode="=" d="M963 655h-857v138h857v-138zM963 309h-857v135h857v-135z" />
<glyph unicode="&#x3e;" horiz-adv-x="2103" d="M1991 551l-817 -817h-193l748 745h-1616v144h1616l-748 745h193z" />
<glyph unicode="?" horiz-adv-x="1017" d="M924 1098q0 -115 -93 -248l-167 -242q-37 -53 -37 -119v-79h-148v82q0 100 64 192l166 240q68 98 67 174q0 104 -66.5 172.5t-168.5 68.5q-106 0 -172 -71.5t-66 -171.5h-147q0 158 110.5 266t274.5 108t273.5 -105t109.5 -267zM641 0h-176v172h176v-172z" />
<glyph unicode="@" horiz-adv-x="1460" d="M1313 -2l-142 2v113q-100 -127 -274 -127q-209 0 -307 166q-61 104 -62 335q0 262 84 375q94 127 283 127q170 0 274 -129v160q0 152 -79.5 233.5t-227.5 81.5h-266q-141 0 -223 -82t-82 -233v-690q0 -96 23.5 -146.5t93.5 -101.5l-101 -100q-94 70 -127 140.5t-33 205.5 v688q0 213 114 328.5t317 115.5h303q201 0 316.5 -115.5t115.5 -328.5v-1018zM1169 487q0 172 -43 258q-59 117 -204 117t-205 -117q-43 -86 -43 -258t43 -258q59 -117 205 -116q145 0 204 116q43 86 43 258z" />
<glyph unicode="A" horiz-adv-x="1251" d="M1227 0h-166l-117 330h-637l-117 -330h-165l536 1458h131zM899 465l-270 770l-275 -770h545z" />
<glyph unicode="B" horiz-adv-x="1368" d="M1212 403q0 -195 -117.5 -299t-316.5 -104h-567v1458h549q193 0 311.5 -104.5t118.5 -284.5q0 -113 -60.5 -199t-154.5 -120q237 -89 237 -347zM1034 1067q0 125 -78.5 188.5t-207.5 63.5h-381v-506h381q127 0 206.5 64.5t79.5 189.5zM1057 408q0 123 -79 194.5 t-214 71.5h-397v-535h397q135 0 214 73t79 196z" />
<glyph unicode="C" horiz-adv-x="1304" d="M1171 422q-35 -203 -172 -318.5t-333 -115.5q-221 0 -373 151q-94 94 -121 230q-16 92 -16 360t16 361q27 135 121 229q152 152 373 151q199 0 334 -114.5t171 -319.5h-159q-29 135 -120 215t-226 80q-152 0 -252 -102q-66 -68 -86 -170q-16 -90 -17 -330q0 -240 17 -330 q20 -102 86 -170q100 -102 252 -102q135 0 228 80t122 215h155z" />
<glyph unicode="D" horiz-adv-x="1378" d="M1223 745q0 -229 -15 -323q-29 -186 -129 -287q-135 -135 -368 -135h-500v1458h500q233 0 368 -135q100 -100 129 -270q15 -89 15 -308zM1067 745q0 188 -10 263q-18 135 -86 204q-102 106 -287 107h-317v-1180h317q184 0 287 107q66 68 86 221q10 81 10 278z" />
<glyph unicode="E" horiz-adv-x="1228" d="M1116 0h-905v1458h905v-139h-749v-514h639v-139h-639v-527h749v-139z" />
<glyph unicode="F" horiz-adv-x="1187" d="M1116 1319h-749v-537h639v-139h-639v-643h-156v1458h905v-139z" />
<glyph unicode="G" horiz-adv-x="1331" d="M1180 532q0 -242 -125 -376q-156 -168 -389 -168q-221 0 -373 151q-94 94 -121 230q-16 92 -16 360t16 361q27 135 121 229q152 152 373 151q205 0 344 -122q133 -117 166 -314h-156q-31 139 -125 218t-229 79q-150 0 -252 -104q-66 -68 -86 -170q-16 -88 -17 -328 q0 -240 17 -330q20 -102 86 -170q100 -102 252 -102q174 0 276 125q82 98 82 264v111h-358v137h514v-232z" />
<glyph unicode="H" horiz-adv-x="1425" d="M1214 0h-155v666h-692v-666h-156v1458h156v-653h692v653h155v-1458z" />
<glyph unicode="I" horiz-adv-x="577" d="M367 0h-156v1458h156v-1458z" />
<glyph unicode="J" horiz-adv-x="1026" d="M836 442q0 -209 -126 -331.5t-329 -122.5t-334 131l105 104q96 -96 229 -96q143 0 221 87t78 249v995h156v-1016z" />
<glyph unicode="K" horiz-adv-x="1331" d="M1303 0h-185l-444 776l-307 -368v-408h-156v1458h156v-837l680 837h190l-459 -563z" />
<glyph unicode="L" horiz-adv-x="1173" d="M1112 0h-901v1458h156v-1319h745v-139z" />
<glyph unicode="M" horiz-adv-x="1671" d="M1460 0h-155v1108l-400 -879h-133l-405 879v-1108h-156v1458h156l475 -1034l463 1034h155v-1458z" />
<glyph unicode="N" horiz-adv-x="1499" d="M1288 0h-147l-774 1169v-1169h-156v1458h147l775 -1165v1165h155v-1458z" />
<glyph unicode="O" horiz-adv-x="1331" d="M1176 729q0 -268 -17 -360q-27 -135 -121 -230q-152 -152 -372 -151q-221 0 -373 151q-94 94 -121 230q-16 92 -16 360t16 361q27 135 121 229q152 152 373 151q221 0 372 -151q94 -94 121 -229q17 -93 17 -361zM1020 729q0 240 -16 328q-20 102 -86 170 q-102 104 -252 104t-252 -104q-66 -68 -86 -170q-16 -88 -17 -328q0 -240 17 -328q20 -102 86 -170q102 -104 252 -104t252 104q66 68 86 170q16 88 16 328z" />
<glyph unicode="P" horiz-adv-x="1290" d="M1204 1030q0 -195 -125 -312.5t-325 -117.5h-387v-600h-156v1458h543q201 0 325.5 -116.5t124.5 -311.5zM1049 1030q0 141 -84 215t-226 74h-372v-580h372q141 0 225.5 75t84.5 216z" />
<glyph unicode="Q" horiz-adv-x="1329" d="M1235 23l-94 -95l-162 162q-133 -102 -313 -102q-221 0 -373 151q-94 94 -121 230q-16 92 -16 360t16 361q27 135 121 229q152 152 373 151q221 0 372 -151q94 -94 121 -229q16 -92 17 -361q0 -244 -13 -332q-18 -129 -88 -215zM1020 729q0 240 -16 328q-20 102 -86 170 q-102 104 -252 104t-252 -104q-66 -68 -86 -170q-16 -88 -17 -328q0 -240 17 -328q20 -102 86 -170q102 -104 252 -104q115 0 206 70l-184 184l94 94l179 -178q37 61 49 162q10 80 10 270z" />
<glyph unicode="R" horiz-adv-x="1343" d="M1231 0h-182l-332 647h-350v-647h-156v1458h559q193 0 312.5 -109.5t119.5 -295.5q0 -156 -86 -258.5t-231 -132.5zM1047 1051q0 129 -80 198.5t-211 69.5h-389v-535h389q133 0 212 69t79 198z" />
<glyph unicode="S" horiz-adv-x="1204" d="M1090 401q0 -190 -137.5 -301.5t-366.5 -111.5q-307 0 -500 192l107 107q160 -160 397 -160q160 0 252 71.5t92 198.5q0 121 -70 183q-55 49 -190 69l-170 27q-379 59 -379 383q0 186 126 298.5t341 112.5q256 0 434 -159l-100 -101q-137 125 -340 125q-143 0 -225 -73.5 t-82 -196.5q0 -111 67.5 -169t194.5 -79l159 -24q178 -27 267 -103q123 -105 123 -289z" />
<glyph unicode="T" horiz-adv-x="1122" d="M1061 1319h-422v-1319h-156v1319h-422v139h1000v-139z" />
<glyph unicode="U" horiz-adv-x="1398" d="M1208 481q0 -217 -144 -355t-366 -138q-221 0 -364.5 138t-143.5 355v977h156v-964q0 -166 96.5 -266.5t255.5 -100.5q160 0 257.5 100.5t97.5 266.5v964h155v-977z" />
<glyph unicode="V" horiz-adv-x="1118" d="M1102 1458l-479 -1458h-127l-480 1458h164l379 -1179l379 1179h164z" />
<glyph unicode="W" horiz-adv-x="1748" d="M1716 1458l-373 -1458h-145l-324 1167l-323 -1167h-145l-373 1458h166l284 -1175l322 1175h139l322 -1175l284 1175h166z" />
<glyph unicode="X" horiz-adv-x="1128" d="M1098 0h-180l-355 612l-356 -612h-176l446 748l-418 710h181l323 -575l324 575h180l-420 -710z" />
<glyph unicode="Y" horiz-adv-x="1052" d="M1036 1458l-430 -856v-602h-155v602l-435 856h168l344 -698l340 698h168z" />
<glyph unicode="Z" horiz-adv-x="1138" d="M1022 0h-905v147l729 1172h-701v139h877v-131l-735 -1188h735v-139z" />
<glyph unicode="[" horiz-adv-x="641" d="M551 -152h-363v1762h363v-131h-215v-1499h215v-132z" />
<glyph unicode="\" horiz-adv-x="727" d="M727 -152h-145l-582 1756h145z" />
<glyph unicode="]" horiz-adv-x="641" d="M453 -152h-363v127h221v1508h-221v127h363v-1762z" />
<glyph unicode="^" horiz-adv-x="1099" d="M952 846h-151l-250 467l-252 -467h-152l336 624h135z" />
<glyph unicode="_" horiz-adv-x="1099" d="M1100 -338h-1100v105h1100v-105z" />
<glyph unicode="`" horiz-adv-x="1024" d="M612 1217h-135l-221 313h176z" />
<glyph unicode="a" horiz-adv-x="1077" d="M903 0h-147v96q-109 -109 -291 -108q-195 0 -285 92q-76 78 -76 205q0 135 91.5 212.5t257.5 77.5h303v97q0 221 -258 221q-172 0 -254 -115l-101 92q66 84 152 119q78 31 205 31q403 0 403 -336v-684zM756 356v109h-283q-225 0 -225 -178q0 -172 231 -172q156 0 226 67 q51 49 51 174z" />
<glyph unicode="b" horiz-adv-x="1116" d="M985 504q0 -305 -123 -428q-88 -88 -246 -88q-182 0 -284 133v-121h-148v1458h148v-567q100 129 284 129q158 0 246 -88q123 -123 123 -428zM838 504q0 178 -43 266q-59 119 -209 119t-209 -119q-45 -88 -45 -266t45 -266q59 -119 209 -119t209 119q43 88 43 266z" />
<glyph unicode="c" horiz-adv-x="1003" d="M907 137q-78 -84 -151.5 -116.5t-180.5 -32.5q-199 0 -317 129q-129 137 -129 387t129 387q119 129 317 129q106 0 180 -33t152 -117l-100 -94q-102 113 -232 113q-152 0 -233 -115q-66 -92 -66 -270t66 -271q82 -115 233 -114q127 0 232 114z" />
<glyph unicode="d" horiz-adv-x="1116" d="M932 0h-146v121q-102 -133 -286 -133q-158 0 -246 88q-123 123 -123 428t123 428q88 88 246 88q184 0 284 -129v567h148v-1458zM784 504q0 178 -43 266q-59 119 -209 119t-208 -119q-45 -88 -45 -266t45 -266q59 -119 208 -119q150 0 209 119q43 88 43 266z" />
<glyph unicode="e" horiz-adv-x="1085" d="M956 465h-680q0 -166 77 -257t220 -91q150 0 265 114l100 -88q-82 -82 -158 -116q-88 -39 -211 -39q-207 0 -319 125q-121 131 -121 391q0 244 110.5 380t303.5 136q195 0 304 -131t109 -357v-67zM809 575q-6 106 -31 168q-63 152 -235 152t-236 -152q-25 -61 -31 -168 h533z" />
<glyph unicode="f" horiz-adv-x="643" d="M580 889h-215v-889h-148v889h-129v112h129v191q0 119 64 190q70 80 192 80h107v-127h-80q-135 0 -135 -147v-187h215v-112z" />
<glyph unicode="g" horiz-adv-x="1112" d="M928 -31q0 -190 -113 -311t-307 -121q-111 0 -185.5 31t-156.5 104l96 95q61 -55 105 -76q55 -25 137 -25q139 0 211 90q66 82 65 219v158q-102 -131 -282 -131q-154 0 -244 90q-123 123 -123 420t123 420q88 88 246 88q182 0 282 -131v119h146v-1039zM780 512 q0 172 -43 260q-57 117 -207 117t-208 -117q-43 -88 -43 -260t43 -258q59 -119 208 -119q150 0 207 119q43 86 43 258z" />
<glyph unicode="h" horiz-adv-x="1150" d="M977 0h-148v623q0 266 -245 266q-117 0 -184.5 -68.5t-67.5 -197.5v-623h-148v1458h148v-561q109 123 282 123q170 0 266.5 -100.5t96.5 -272.5v-647z" />
<glyph unicode="i" horiz-adv-x="518" d="M342 1294h-166v166h166v-166zM332 0h-148v1008h148v-1008z" />
<glyph unicode="j" horiz-adv-x="518" d="M342 1294h-166v166h166v-166zM332 -182q0 -121 -62 -193q-68 -78 -194 -78h-107v129h80q135 0 135 148v1177h148v-1183z" />
<glyph unicode="k" horiz-adv-x="1097" d="M1030 0h-182l-320 516l-196 -225v-291h-148v1458h148v-975l454 525h185l-342 -385z" />
<glyph unicode="l" horiz-adv-x="608" d="M543 0h-107q-127 0 -191.5 73.5t-64.5 194.5v1190h148v-1184q0 -147 135 -147h80v-127z" />
<glyph unicode="m" horiz-adv-x="1800" d="M1626 0h-147v621q0 268 -248 268q-113 0 -182.5 -67.5t-69.5 -184.5v-637h-148v621q0 268 -247 268q-117 0 -184.5 -69.5t-67.5 -198.5v-621h-148v1008h148v-111q109 123 284 123q215 0 310 -168q119 168 331 168q164 0 261 -94q109 -104 108 -281v-645z" />
<glyph unicode="n" horiz-adv-x="1150" d="M977 0h-148v621q0 268 -247 268q-117 0 -183.5 -69.5t-66.5 -198.5v-621h-148v1008h148v-111q109 123 282 123q162 0 258 -94q104 -102 105 -281v-645z" />
<glyph unicode="o" horiz-adv-x="1085" d="M954 504q0 -276 -123 -402q-113 -115 -288 -114q-176 0 -289 114q-123 125 -123 402q0 276 123 401q113 115 289 115t288 -115q123 -125 123 -401zM807 504q0 231 -80 311q-74 74 -184 74q-109 0 -183 -74q-82 -82 -81 -311q0 -229 81 -311q74 -74 183 -74 q111 0 187.5 77t76.5 308z" />
<glyph unicode="p" horiz-adv-x="1116" d="M985 504q0 -305 -123 -428q-88 -88 -246 -88q-182 0 -284 131v-570h-148v1459h148v-119q100 131 284 131q158 0 246 -88q123 -123 123 -428zM838 504q0 178 -43 266q-59 119 -209 119t-209 -119q-45 -88 -45 -266t45 -266q59 -119 209 -119t209 119q43 88 43 266z" />
<glyph unicode="q" horiz-adv-x="1116" d="M932 -451h-148v570q-102 -131 -284 -131q-158 0 -246 88q-123 123 -123 428t123 428q88 88 246 88q186 0 286 -131v119h146v-1459zM784 504q0 178 -43 266q-59 119 -209 119t-208 -119q-45 -88 -45 -266t45 -266q59 -119 208 -119q150 0 209 119q43 88 43 266z" />
<glyph unicode="r" horiz-adv-x="862" d="M856 926l-108 -111q-74 74 -175 74q-109 0 -175 -77t-66 -194v-618h-148v1008h148v-123q88 135 282 135q148 0 242 -94z" />
<glyph unicode="s" horiz-adv-x="1015" d="M911 295q0 -143 -111.5 -225t-297.5 -82q-262 0 -414 145l98 98q111 -117 314 -116q268 0 268 178q0 133 -168 147l-166 15q-301 27 -301 270q0 135 103.5 215t267.5 80q229 0 362 -109l-96 -96q-104 80 -268 80q-225 0 -226 -166q0 -131 177 -147l161 -15 q297 -26 297 -272z" />
<glyph unicode="t" horiz-adv-x="679" d="M571 0h-104q-125 0 -193 80q-66 72 -65 190v619h-127v112h127v316h147v-316h215v-112h-215v-615q0 -147 138 -147h77v-127z" />
<glyph unicode="u" horiz-adv-x="1150" d="M967 0h-146v113q-109 -125 -284 -125q-164 0 -261 94q-102 100 -102 283v643h148v-621q0 -268 245 -268q117 0 184.5 69.5t67.5 198.5v621h148v-1008z" />
<glyph unicode="v" horiz-adv-x="915" d="M893 1008l-371 -1008h-131l-368 1008h159l275 -809l276 809h160z" />
<glyph unicode="w" horiz-adv-x="1482" d="M1460 1008l-317 -1008h-137l-265 782l-262 -782h-137l-319 1008h159l232 -809l264 809h127l266 -809l229 809h160z" />
<glyph unicode="x" horiz-adv-x="978" d="M911 0h-178l-241 391l-246 -391h-178l342 514l-328 494h178l232 -373l227 373h178l-328 -494z" />
<glyph unicode="y" horiz-adv-x="915" d="M893 1008l-459 -1252q-29 -78 -72 -118q-74 -70 -196 -70h-64v131h45q74 0 107 26.5t59 98.5l72 196l-362 988h159l277 -809l274 809h160z" />
<glyph unicode="z" horiz-adv-x="940" d="M834 0h-732v127l562 750h-531v131h701v-125l-564 -752h564v-131z" />
<glyph unicode="{" horiz-adv-x="724" d="M625 -152h-76q-145 0 -206.5 61.5t-61.5 203.5v391q0 86 -37 123t-92 37h-54v131h54q55 0 92 36.5t37 122.5v392q0 141 61 202.5t207 61.5h76v-131h-47q-117 0 -138 -54q-12 -31 -12 -106v-385q0 -143 -129 -205q129 -61 129 -205v-385q0 -115 39 -141q27 -18 111 -18h47 v-132z" />
<glyph unicode="|" horiz-adv-x="667" d="M408 -152h-148v1762h148v-1762z" />
<glyph unicode="}" horiz-adv-x="724" d="M625 664h-52q-55 0 -92 -37t-37 -123v-391q0 -141 -61 -203t-207 -62h-78v132h49q92 0 121 28.5t29 130.5v385q0 143 129 205q-129 61 -129 205v385q0 113 -41 141q-27 18 -109 19h-49v131h78q145 0 206.5 -61.5t61.5 -202.5v-392q0 -86 37 -122.5t92 -36.5h52v-131z" />
<glyph unicode="~" horiz-adv-x="1103" d="M1004 569q-84 -84 -138.5 -111.5t-126.5 -27.5q-78 0 -217 64q-109 49 -160 49q-80 0 -172 -92l-90 92q84 84 142 112q51 27 123 27q76 0 215 -64q109 -49 159 -49q80 0 172 93z" />
<glyph unicode="&#xa1;" horiz-adv-x="647" d="M379 836h-176v172h176v-172zM377 -451h-170l20 1049h127z" />
<glyph unicode="&#xa2;" horiz-adv-x="1019" d="M918 387q-129 -139 -297 -151v-236h-121v240q-172 25 -271.5 158.5t-99.5 351.5q0 217 100 354q98 131 271 156v198h121v-194q168 -12 297 -152l-101 -94q-92 104 -205 112v-761q113 8 205 112zM508 373v753q-100 -18 -164 -106q-68 -94 -68 -270t66 -267.5t166 -109.5z " />
<glyph unicode="&#xa3;" horiz-adv-x="1122" d="M1016 0h-791v676h-129v110h129v230q0 207 127 330.5t330 123.5t334 -131l-107 -104q-96 96 -227 96q-143 0 -221 -87t-78 -249v-209h299v-110h-299v-537h633v-139z" />
<glyph unicode="&#xa4;" horiz-adv-x="1351" d="M1192 133l-94 -94l-154 151q-121 -90 -268 -90q-150 0 -270 90l-152 -151l-94 94l151 152q-90 121 -90 270q0 150 90 270l-151 150l94 94l152 -149q117 88 270 88q152 0 268 -88l154 149l94 -94l-152 -150q90 -121 90 -270q0 -150 -90 -270zM993 555q0 133 -92 225 t-225 92t-226.5 -93t-93.5 -224t94.5 -225t225.5 -94t224 93t93 226z" />
<glyph unicode="&#xa5;" horiz-adv-x="1052" d="M1036 1458l-321 -637h205v-110h-261l-53 -109v-106h314v-113h-314v-383h-157v383h-316v113h316v106l-54 109h-262v110h205l-322 637h168l344 -698l342 698h166z" />
<glyph unicode="&#xa6;" horiz-adv-x="686" d="M408 893h-148v717h148v-717zM408 -152h-148v717h148v-717z" />
<glyph unicode="&#xa7;" horiz-adv-x="1140" d="M963 520q0 -117 -66 -211q-57 -80 -147 -125q199 -74 198 -295q0 -158 -107.5 -255t-269.5 -97q-160 0 -264 82q-115 90 -123 248h150q18 -195 237 -195q106 0 167 56.5t61 158.5q0 158 -181 209l-159 45q-281 80 -281 375q0 119 66 211q57 80 149 125q-190 86 -190 283 q0 150 103.5 242.5t264.5 92.5q162 0 264.5 -87t108.5 -234h-147q-14 190 -226 190q-221 0 -221 -202q0 -147 172 -197l160 -45q133 -37 207 -136.5t74 -238.5zM813 518q0 123 -65 189q-74 74 -177 73q-109 0 -176 -73.5t-67 -188.5t67.5 -188.5t175.5 -73.5 q109 0 175.5 72.5t66.5 189.5z" />
<glyph unicode="&#xa8;" horiz-adv-x="1024" d="M803 1233h-148v182h148v-182zM369 1233h-148v182h148v-182z" />
<glyph unicode="&#xa9;" horiz-adv-x="1804" d="M1642 729q0 -307 -217 -524t-524 -217t-524 217t-217 524t217 524t524 217t524 -217t217 -524zM1524 729q0 260 -182.5 445.5t-440.5 185.5t-439 -185.5t-181 -445.5t181 -445.5t439 -185.5t440.5 185.5t182.5 445.5zM1180 420q-119 -106 -269 -107q-174 0 -270 119 q-94 111 -94 297t95 302t269 116q145 0 269 -109l-74 -73q-90 80 -195 79q-250 0 -249 -315q0 -313 249 -313q106 0 195 78z" />
<glyph unicode="&#xaa;" horiz-adv-x="919" d="M748 653h-119v74q-86 -84 -228 -84q-154 0 -225 74q-61 63 -61 162q0 109 72.5 171t203.5 62h236v74q0 172 -199 172q-135 0 -201 -90l-84 75q96 123 287 123q317 0 318 -270v-543zM627 938v82h-219q-172 0 -172 -137q0 -133 176 -133q123 0 176 51q39 37 39 137z" />
<glyph unicode="&#xab;" horiz-adv-x="1134" d="M975 119l-430 430l430 430v-184l-248 -246l248 -248v-182zM512 119l-430 430l430 430v-184l-246 -246l246 -248v-182z" />
<glyph unicode="&#xac;" d="M965 211h-138v281h-723v137h861v-418z" />
<glyph unicode="&#xad;" horiz-adv-x="872" d="M717 483h-561v138h561v-138z" />
<glyph unicode="&#xae;" horiz-adv-x="1804" d="M1642 729q0 -307 -217 -524t-524 -217t-524 217t-217 524t217 524t524 217t524 -217t217 -524zM1526 729q0 262 -183.5 447.5t-441.5 185.5t-440 -185.5t-182 -447.5t182 -447.5t440 -185.5t441.5 185.5t183.5 447.5zM1212 324h-131l-186 331h-123v-331h-113v813h277 q106 0 181 -71t75 -173q0 -170 -174 -223zM1077 893q0 61 -43 102t-110 41h-152v-284h152q68 0 110.5 40t42.5 101z" />
<glyph unicode="&#xaf;" horiz-adv-x="1024" d="M821 1257h-618v117h618v-117z" />
<glyph unicode="&#xb0;" horiz-adv-x="948" d="M811 1141q0 -139 -98.5 -237.5t-237.5 -98.5t-238.5 98t-99.5 238q0 139 99.5 237.5t238.5 98.5t237.5 -98.5t98.5 -237.5zM686 1141q0 92 -61.5 154.5t-151.5 62.5t-150.5 -62.5t-60.5 -154.5t61.5 -154.5t151.5 -62.5t150.5 62.5t60.5 154.5z" />
<glyph unicode="&#xb1;" d="M963 592h-359v-363h-137v363h-361v137h361v358h137v-358h359v-137zM963 0h-857v137h857v-137z" />
<glyph unicode="&#xb2;" horiz-adv-x="700" d="M602 584h-504v106l338 414q47 57 47 119q0 137 -133 137t-133 -137h-119q0 111 71 177t181 66q113 0 182.5 -66.5t69.5 -176.5q0 -92 -80 -189l-282 -344h362v-106z" />
<glyph unicode="&#xb3;" horiz-adv-x="729" d="M631 829q0 -121 -75 -188.5t-189 -67.5q-113 0 -185 60q-80 66 -84 184h119q6 -137 150 -137q66 0 106.5 40t40.5 109q0 150 -154 150h-18v102h18q139 0 140 140q0 66 -39 102.5t-96 36.5q-127 0 -138 -129h-116q6 109 77.5 172t176.5 63q111 0 181 -67.5t70 -175.5 q0 -137 -110 -189q125 -53 125 -205z" />
<glyph unicode="&#xb4;" horiz-adv-x="1024" d="M768 1530l-221 -313h-135l180 313h176z" />
<glyph unicode="&#xb6;" horiz-adv-x="1234" d="M1024 -451h-147v1770h-240v-1770h-148v1119q-178 0 -292 120q-111 115 -111 273q0 170 120 283.5t324 113.5h494v-1909z" />
<glyph unicode="&#xb7;" horiz-adv-x="552" d="M373 457h-193v192h193v-192z" />
<glyph unicode="&#xb8;" horiz-adv-x="1024" d="M641 -137l-121 -305h-162l146 305h137z" />
<glyph unicode="&#xb9;" horiz-adv-x="534" d="M375 584h-117v743l-170 -149v135l170 145h117v-874z" />
<glyph unicode="&#xba;" horiz-adv-x="931" d="M793 1055q0 -219 -99 -320q-88 -90 -229 -90t-229 90q-98 100 -99 320q0 219 99 319q90 92 229 92t229 -92q99 -100 99 -319zM672 1055q0 180 -64 243q-57 57 -143 58q-86 0 -145.5 -59.5t-59.5 -241.5q0 -180 60.5 -240.5t144.5 -60.5t145.5 61.5t61.5 239.5z" />
<glyph unicode="&#xbb;" horiz-adv-x="1134" d="M1053 549l-430 -430v182l245 248l-245 246v184zM590 549l-430 -430v182l248 248l-248 246v184z" />
<glyph unicode="&#xbc;" horiz-adv-x="1591" d="M1509 131h-96v-131h-115v131h-352v109l309 634h127l-307 -634h223v215h115v-215h96v-109zM1159 1458l-682 -1458h-123l682 1458h123zM375 584h-117v743l-170 -149v135l170 145h117v-874z" />
<glyph unicode="&#xbd;" horiz-adv-x="1617" d="M1520 0h-504v106l338 414q47 57 47 119q0 137 -133 137t-133 -137h-119q0 111 70.5 177.5t181.5 66.5q113 0 182.5 -66.5t69.5 -177.5q0 -90 -80 -188l-281 -345h361v-106zM1135 1458l-682 -1458h-123l682 1458h123zM375 584h-117v743l-170 -149v135l170 145h117v-874z " />
<glyph unicode="&#xbe;" horiz-adv-x="1683" d="M1602 131h-97v-131h-114v131h-353v109l310 634h127l-310 -634h226v215h114v-215h97v-109zM1268 1458l-684 -1458h-123l684 1458h123zM631 829q0 -121 -75 -188.5t-189 -67.5q-113 0 -185 60q-80 66 -84 184h119q6 -137 150 -137q66 0 106.5 40t40.5 109q0 150 -154 150 h-18v102h18q139 0 140 140q0 66 -39 102.5t-96 36.5q-127 0 -138 -129h-116q6 109 77.5 172t176.5 63q111 0 181 -67.5t70 -175.5q0 -137 -110 -189q125 -53 125 -205z" />
<glyph unicode="&#xbf;" horiz-adv-x="1017" d="M553 836h-174v172h174v-172zM862 -88q0 -158 -109.5 -266.5t-273.5 -108.5t-274.5 106.5t-110.5 268.5q0 111 94 246l168 241q37 53 37 119v82h148v-84q0 -98 -66 -192l-166 -238q-68 -96 -67 -174q0 -102 67.5 -172t169.5 -70q106 0 171 71t65 171h147z" />
<glyph unicode="&#xc0;" horiz-adv-x="1251" d="M1227 0h-166l-117 330h-637l-117 -330h-165l536 1458h131zM899 465l-270 770l-275 -770h545zM718 1600h-135l-221 313h176z" />
<glyph unicode="&#xc1;" horiz-adv-x="1251" d="M1227 0h-166l-117 330h-637l-117 -330h-165l536 1458h131zM899 465l-270 770l-275 -770h545zM874 1913l-221 -313h-135l180 313h176z" />
<glyph unicode="&#xc2;" horiz-adv-x="1251" d="M1227 0h-166l-117 330h-637l-117 -330h-165l536 1458h131zM899 465l-270 770l-275 -770h545zM944 1600h-142l-184 213l-184 -213h-142l256 313h140z" />
<glyph unicode="&#xc3;" horiz-adv-x="1251" d="M1227 0h-166l-117 330h-637l-117 -330h-165l536 1458h131zM899 465l-270 770l-275 -770h545zM940 1733q-104 -104 -195 -105q-63 0 -145 47q-74 43 -115 43q-55 0 -121 -65l-76 73q104 104 195 105q66 0 145 -49q68 -41 115 -41q55 0 121 65z" />
<glyph unicode="&#xc4;" horiz-adv-x="1251" d="M1227 0h-166l-117 330h-637l-117 -330h-165l536 1458h131zM899 465l-270 770l-275 -770h545zM909 1616h-148v182h148v-182zM475 1616h-148v182h148v-182z" />
<glyph unicode="&#xc5;" horiz-adv-x="1251" d="M1227 0h-166l-117 330h-637l-117 -330h-165l536 1458h131zM899 465l-270 770l-275 -770h545zM860 1776q0 -100 -71 -172t-171 -72t-171 72t-71 172t71 171t171 71t171 -71t71 -171zM759 1776q0 57 -41 98t-100 41t-100 -41t-41 -98t42 -99t99 -42q59 0 100 42t41 99z" />
<glyph unicode="&#xc6;" horiz-adv-x="1888" d="M1776 0h-904v346h-505l-181 -346h-170l770 1458h990v-139h-750v-518h639v-139h-639v-523h750v-139zM872 481v838l-438 -838h438z" />
<glyph unicode="&#xc7;" horiz-adv-x="1304" d="M1171 422q-35 -203 -172 -318.5t-333 -115.5q-221 0 -373 151q-94 94 -121 230q-16 92 -16 360t16 361q27 135 121 229q152 152 373 151q199 0 334 -114.5t171 -319.5h-159q-29 135 -120 215t-226 80q-152 0 -252 -102q-66 -68 -86 -170q-16 -90 -17 -330q0 -240 17 -330 q20 -102 86 -170q100 -102 252 -102q135 0 228 80t122 215h155zM758 -137l-121 -305h-162l146 305h137z" />
<glyph unicode="&#xc8;" horiz-adv-x="1228" d="M1116 0h-905v1458h905v-139h-749v-514h639v-139h-639v-527h749v-139zM741 1600h-135l-221 313h176z" />
<glyph unicode="&#xc9;" horiz-adv-x="1228" d="M1116 0h-905v1458h905v-139h-749v-514h639v-139h-639v-527h749v-139zM897 1913l-221 -313h-135l180 313h176z" />
<glyph unicode="&#xca;" horiz-adv-x="1228" d="M1116 0h-905v1458h905v-139h-749v-514h639v-139h-639v-527h749v-139zM967 1600h-142l-184 213l-184 -213h-142l256 313h140z" />
<glyph unicode="&#xcb;" horiz-adv-x="1228" d="M1116 0h-905v1458h905v-139h-749v-514h639v-139h-639v-527h749v-139zM932 1616h-148v182h148v-182zM498 1616h-148v182h148v-182z" />
<glyph unicode="&#xcc;" horiz-adv-x="577" d="M367 0h-156v1458h156v-1458zM419 1600h-135l-221 313h176z" />
<glyph unicode="&#xcd;" horiz-adv-x="577" d="M367 0h-156v1458h156v-1458zM518 1913l-221 -313h-135l180 313h176z" />
<glyph unicode="&#xce;" horiz-adv-x="577" d="M367 0h-156v1458h156v-1458zM611 1600h-142l-184 213l-184 -213h-142l256 313h140z" />
<glyph unicode="&#xcf;" horiz-adv-x="577" d="M367 0h-156v1458h156v-1458zM578 1616h-148v182h148v-182zM144 1616h-148v182h148v-182z" />
<glyph unicode="&#xd0;" horiz-adv-x="1406" d="M1251 729q0 -213 -6 -266q-16 -152 -84 -248q-154 -215 -432 -215h-489v676h-160v121h160v661h501q276 0 420 -219q61 -94 76 -184q14 -82 14 -326zM1096 721q0 219 -11 293q-14 92 -63 160q-106 147 -309 147h-316v-524h330v-121h-330v-539h316q219 0 319 152 q43 66 53 143q11 68 11 289z" />
<glyph unicode="&#xd1;" horiz-adv-x="1499" d="M1288 0h-147l-774 1169v-1169h-156v1458h147l775 -1165v1165h155v-1458zM1072 1733q-104 -104 -195 -105q-63 0 -145 47q-74 43 -115 43q-55 0 -121 -65l-76 73q104 104 195 105q66 0 145 -49q68 -41 115 -41q55 0 121 65z" />
<glyph unicode="&#xd2;" horiz-adv-x="1331" d="M1176 729q0 -268 -17 -360q-27 -135 -121 -230q-152 -152 -372 -151q-221 0 -373 151q-94 94 -121 230q-16 92 -16 360t16 361q27 135 121 229q152 152 373 151q221 0 372 -151q94 -94 121 -229q17 -93 17 -361zM1020 729q0 240 -16 328q-20 102 -86 170 q-102 104 -252 104t-252 -104q-66 -68 -86 -170q-16 -88 -17 -328q0 -240 17 -328q20 -102 86 -170q102 -104 252 -104t252 104q66 68 86 170q16 88 16 328zM766 1600h-135l-221 313h176z" />
<glyph unicode="&#xd3;" horiz-adv-x="1331" d="M1176 729q0 -268 -17 -360q-27 -135 -121 -230q-152 -152 -372 -151q-221 0 -373 151q-94 94 -121 230q-16 92 -16 360t16 361q27 135 121 229q152 152 373 151q221 0 372 -151q94 -94 121 -229q17 -93 17 -361zM1020 729q0 240 -16 328q-20 102 -86 170 q-102 104 -252 104t-252 -104q-66 -68 -86 -170q-16 -88 -17 -328q0 -240 17 -328q20 -102 86 -170q102 -104 252 -104t252 104q66 68 86 170q16 88 16 328zM922 1913l-221 -313h-135l180 313h176z" />
<glyph unicode="&#xd4;" horiz-adv-x="1331" d="M1176 729q0 -268 -17 -360q-27 -135 -121 -230q-152 -152 -372 -151q-221 0 -373 151q-94 94 -121 230q-16 92 -16 360t16 361q27 135 121 229q152 152 373 151q221 0 372 -151q94 -94 121 -229q17 -93 17 -361zM1020 729q0 240 -16 328q-20 102 -86 170 q-102 104 -252 104t-252 -104q-66 -68 -86 -170q-16 -88 -17 -328q0 -240 17 -328q20 -102 86 -170q102 -104 252 -104t252 104q66 68 86 170q16 88 16 328zM992 1600h-142l-184 213l-184 -213h-142l256 313h140z" />
<glyph unicode="&#xd5;" horiz-adv-x="1331" d="M1176 729q0 -268 -17 -360q-27 -135 -121 -230q-152 -152 -372 -151q-221 0 -373 151q-94 94 -121 230q-16 92 -16 360t16 361q27 135 121 229q152 152 373 151q221 0 372 -151q94 -94 121 -229q17 -93 17 -361zM1020 729q0 240 -16 328q-20 102 -86 170 q-102 104 -252 104t-252 -104q-66 -68 -86 -170q-16 -88 -17 -328q0 -240 17 -328q20 -102 86 -170q102 -104 252 -104t252 104q66 68 86 170q16 88 16 328zM988 1733q-104 -104 -195 -105q-63 0 -145 47q-74 43 -115 43q-55 0 -121 -65l-76 73q104 104 195 105 q66 0 145 -49q68 -41 115 -41q55 0 121 65z" />
<glyph unicode="&#xd6;" horiz-adv-x="1331" d="M1176 729q0 -268 -17 -360q-27 -135 -121 -230q-152 -152 -372 -151q-221 0 -373 151q-94 94 -121 230q-16 92 -16 360t16 361q27 135 121 229q152 152 373 151q221 0 372 -151q94 -94 121 -229q17 -93 17 -361zM1020 729q0 240 -16 328q-20 102 -86 170 q-102 104 -252 104t-252 -104q-66 -68 -86 -170q-16 -88 -17 -328q0 -240 17 -328q20 -102 86 -170q102 -104 252 -104t252 104q66 68 86 170q16 88 16 328zM957 1616h-148v182h148v-182zM523 1616h-148v182h148v-182z" />
<glyph unicode="&#xd7;" d="M936 244l-92 -92l-309 309l-310 -309l-92 92l309 309l-309 309l92 92l310 -311l309 311l92 -92l-311 -309z" />
<glyph unicode="&#xd8;" horiz-adv-x="1335" d="M1176 729q0 -268 -17 -360q-27 -135 -121 -230q-152 -152 -372 -151q-143 0 -258 65l-68 -143h-133l102 213l-16 16q-94 94 -121 232q-16 90 -16 358t16 361q27 135 121 229q152 152 373 151q143 0 256 -63l69 141h133l-102 -213l16 -16q94 -94 121 -232q17 -90 17 -358z M1018 729q0 215 -10 299q-14 100 -60 162l-479 -1004q92 -59 197 -59q150 0 252 104q66 68 83 170q17 86 17 328zM862 1272q-92 59 -196 59q-150 0 -252 -104q-66 -68 -86 -170q-16 -88 -17 -328q0 -213 13 -297q14 -102 59 -164z" />
<glyph unicode="&#xd9;" horiz-adv-x="1396" d="M1208 481q0 -217 -144 -355t-366 -138q-221 0 -364.5 138t-143.5 355v977h156v-964q0 -166 96.5 -266.5t255.5 -100.5q160 0 257.5 100.5t97.5 266.5v964h155v-977zM798 1600h-135l-221 313h176z" />
<glyph unicode="&#xda;" horiz-adv-x="1396" d="M1208 481q0 -217 -144 -355t-366 -138q-221 0 -364.5 138t-143.5 355v977h156v-964q0 -166 96.5 -266.5t255.5 -100.5q160 0 257.5 100.5t97.5 266.5v964h155v-977zM954 1913l-221 -313h-135l180 313h176z" />
<glyph unicode="&#xdb;" horiz-adv-x="1396" d="M1208 481q0 -217 -144 -355t-366 -138q-221 0 -364.5 138t-143.5 355v977h156v-964q0 -166 96.5 -266.5t255.5 -100.5q160 0 257.5 100.5t97.5 266.5v964h155v-977zM1024 1600h-142l-184 213l-184 -213h-142l256 313h140z" />
<glyph unicode="&#xdc;" horiz-adv-x="1396" d="M1208 481q0 -217 -144 -355t-366 -138q-221 0 -364.5 138t-143.5 355v977h156v-964q0 -166 96.5 -266.5t255.5 -100.5q160 0 257.5 100.5t97.5 266.5v964h155v-977zM989 1616h-148v182h148v-182zM555 1616h-148v182h148v-182z" />
<glyph unicode="&#xdd;" horiz-adv-x="1054" d="M1036 1458l-430 -856v-602h-155v602l-435 856h168l344 -698l340 698h168zM782 1913l-221 -313h-135l180 313h176z" />
<glyph unicode="&#xde;" horiz-adv-x="1314" d="M1204 735q0 -195 -125 -311.5t-325 -116.5h-387v-307h-156v1458h156v-293h387q201 0 325.5 -117.5t124.5 -312.5zM1049 735q0 141 -84 215t-226 74h-372v-578h372q141 0 225.5 74t84.5 215z" />
<glyph unicode="&#xdf;" horiz-adv-x="1138" d="M991 289q0 -141 -80 -215t-211 -74h-110v127h82q72 0 122 41t50 137v346q0 84 -43 127t-121 43h-90v123h74q80 0 130 50t50 136q0 94 -63.5 153.5t-192.5 59.5q-254 0 -254 -276v-1067h-150v1073q0 190 111 295t301 105q174 0 278 -82q117 -90 117 -258q0 -160 -129 -244 q74 -39 101.5 -93.5t27.5 -152.5v-354z" />
<glyph unicode="&#xe0;" horiz-adv-x="1077" d="M903 0h-147v96q-109 -109 -291 -108q-195 0 -285 92q-76 78 -76 205q0 135 91.5 212.5t257.5 77.5h303v97q0 221 -258 221q-172 0 -254 -115l-101 92q66 84 152 119q78 31 205 31q403 0 403 -336v-684zM756 356v109h-283q-225 0 -225 -178q0 -172 231 -172q156 0 226 67 q51 49 51 174zM616 1217h-135l-221 313h176z" />
<glyph unicode="&#xe1;" horiz-adv-x="1077" d="M903 0h-147v96q-109 -109 -291 -108q-195 0 -285 92q-76 78 -76 205q0 135 91.5 212.5t257.5 77.5h303v97q0 221 -258 221q-172 0 -254 -115l-101 92q66 84 152 119q78 31 205 31q403 0 403 -336v-684zM756 356v109h-283q-225 0 -225 -178q0 -172 231 -172q156 0 226 67 q51 49 51 174zM772 1530l-221 -313h-135l180 313h176z" />
<glyph unicode="&#xe2;" horiz-adv-x="1077" d="M903 0h-147v96q-109 -109 -291 -108q-195 0 -285 92q-76 78 -76 205q0 135 91.5 212.5t257.5 77.5h303v97q0 221 -258 221q-172 0 -254 -115l-101 92q66 84 152 119q78 31 205 31q403 0 403 -336v-684zM756 356v109h-283q-225 0 -225 -178q0 -172 231 -172q156 0 226 67 q51 49 51 174zM842 1217h-142l-184 213l-184 -213h-142l256 313h140z" />
<glyph unicode="&#xe3;" horiz-adv-x="1077" d="M903 0h-147v96q-109 -109 -291 -108q-195 0 -285 92q-76 78 -76 205q0 135 91.5 212.5t257.5 77.5h303v97q0 221 -258 221q-172 0 -254 -115l-101 92q66 84 152 119q78 31 205 31q403 0 403 -336v-684zM756 356v109h-283q-225 0 -225 -178q0 -172 231 -172q156 0 226 67 q51 49 51 174zM838 1350q-104 -104 -195 -105q-63 0 -145 47q-74 43 -115 43q-55 0 -121 -65l-76 73q104 104 195 105q66 0 145 -49q68 -41 115 -41q55 0 121 65z" />
<glyph unicode="&#xe4;" horiz-adv-x="1077" d="M903 0h-147v96q-109 -109 -291 -108q-195 0 -285 92q-76 78 -76 205q0 135 91.5 212.5t257.5 77.5h303v97q0 221 -258 221q-172 0 -254 -115l-101 92q66 84 152 119q78 31 205 31q403 0 403 -336v-684zM756 356v109h-283q-225 0 -225 -178q0 -172 231 -172q156 0 226 67 q51 49 51 174zM807 1233h-148v182h148v-182zM373 1233h-148v182h148v-182z" />
<glyph unicode="&#xe5;" horiz-adv-x="1077" d="M903 0h-147v96q-109 -109 -291 -108q-195 0 -285 92q-76 78 -76 205q0 135 91.5 212.5t257.5 77.5h303v97q0 221 -258 221q-172 0 -254 -115l-101 92q66 84 152 119q78 31 205 31q403 0 403 -336v-684zM756 356v109h-283q-225 0 -225 -178q0 -172 231 -172q156 0 226 67 q51 49 51 174zM758 1407q0 -100 -71 -172t-171 -72t-171 72t-71 172t71 171t171 71t171 -71t71 -171zM657 1407q0 57 -41 98t-100 41t-100 -41t-41 -98t42 -99t99 -42q59 0 100 42t41 99z" />
<glyph unicode="&#xe6;" horiz-adv-x="1710" d="M1583 465h-682q0 -166 78 -257t221 -91q147 0 262 114l103 -88q-156 -156 -373 -155q-250 0 -358 174q-68 -96 -152 -135t-217 -39q-195 0 -285 92q-76 78 -76 205q0 135 91.5 212.5t257.5 77.5h303v97q0 221 -258 221q-172 0 -254 -115l-101 92q66 84 152 119 q78 31 205 31q270 0 354 -158q106 158 315 158q195 0 304.5 -131t109.5 -357v-67zM1436 575q-6 106 -31 168q-63 152 -236 152q-172 0 -235 -152q-29 -66 -33 -168h535zM756 356v109h-283q-225 0 -225 -178q0 -172 231 -172q156 0 226 67q51 49 51 174z" />
<glyph unicode="&#xe7;" horiz-adv-x="1011" d="M907 137q-78 -84 -151.5 -116.5t-180.5 -32.5q-199 0 -317 129q-129 137 -129 387t129 387q119 129 317 129q106 0 180 -33t152 -117l-100 -94q-102 113 -232 113q-152 0 -233 -115q-66 -92 -66 -270t66 -271q82 -115 233 -114q127 0 232 114zM641 -137l-121 -305h-162 l146 305h137z" />
<glyph unicode="&#xe8;" horiz-adv-x="1085" d="M956 465h-680q0 -166 77 -257t220 -91q150 0 265 114l100 -88q-82 -82 -158 -116q-88 -39 -211 -39q-207 0 -319 125q-121 131 -121 391q0 244 110.5 380t303.5 136q195 0 304 -131t109 -357v-67zM809 575q-6 106 -31 168q-63 152 -235 152t-236 -152q-25 -61 -31 -168 h533zM649 1217h-135l-221 313h176z" />
<glyph unicode="&#xe9;" horiz-adv-x="1085" d="M956 465h-680q0 -166 77 -257t220 -91q150 0 265 114l100 -88q-82 -82 -158 -116q-88 -39 -211 -39q-207 0 -319 125q-121 131 -121 391q0 244 110.5 380t303.5 136q195 0 304 -131t109 -357v-67zM809 575q-6 106 -31 168q-63 152 -235 152t-236 -152q-25 -61 -31 -168 h533zM805 1530l-221 -313h-135l180 313h176z" />
<glyph unicode="&#xea;" horiz-adv-x="1085" d="M956 465h-680q0 -166 77 -257t220 -91q150 0 265 114l100 -88q-82 -82 -158 -116q-88 -39 -211 -39q-207 0 -319 125q-121 131 -121 391q0 244 110.5 380t303.5 136q195 0 304 -131t109 -357v-67zM809 575q-6 106 -31 168q-63 152 -235 152t-236 -152q-25 -61 -31 -168 h533zM875 1217h-142l-184 213l-184 -213h-142l256 313h140z" />
<glyph unicode="&#xeb;" horiz-adv-x="1085" d="M956 465h-680q0 -166 77 -257t220 -91q150 0 265 114l100 -88q-82 -82 -158 -116q-88 -39 -211 -39q-207 0 -319 125q-121 131 -121 391q0 244 110.5 380t303.5 136q195 0 304 -131t109 -357v-67zM809 575q-6 106 -31 168q-63 152 -235 152t-236 -152q-25 -61 -31 -168 h533zM840 1233h-148v182h148v-182zM406 1233h-148v182h148v-182z" />
<glyph unicode="&#xec;" horiz-adv-x="518" d="M332 0h-148v1008h148v-1008zM393 1217h-135l-221 313h176z" />
<glyph unicode="&#xed;" horiz-adv-x="518" d="M332 0h-148v1008h148v-1008zM492 1530l-221 -313h-135l180 313h176z" />
<glyph unicode="&#xee;" horiz-adv-x="518" d="M332 0h-148v1008h148v-1008zM584 1217h-142l-184 213l-184 -213h-142l256 313h140z" />
<glyph unicode="&#xef;" horiz-adv-x="518" d="M332 0h-148v1008h148v-1008zM545 1233h-148v182h148v-182zM111 1233h-148v182h148v-182z" />
<glyph unicode="&#xf0;" horiz-adv-x="1085" d="M952 500q0 -274 -123 -400q-111 -113 -286 -112q-176 0 -287 112q-121 123 -121 400q0 276 121 399q96 98 250 107q96 6 153 -21l-118 203h-238v106h180l-96 168h154l96 -168h168v-106h-111l129 -227q76 -133 102.5 -225.5t26.5 -235.5zM805 500q0 229 -80 309 q-74 74 -182 74q-106 0 -181 -74q-80 -80 -79 -309q0 -227 79 -307q74 -74 181 -74q109 0 185.5 77t76.5 304z" />
<glyph unicode="&#xf1;" horiz-adv-x="1150" d="M977 0h-148v621q0 268 -247 268q-117 0 -183.5 -69.5t-66.5 -198.5v-621h-148v1008h148v-111q109 123 282 123q162 0 258 -94q104 -102 105 -281v-645zM906 1350q-104 -104 -195 -105q-63 0 -145 47q-74 43 -115 43q-55 0 -121 -65l-76 73q104 104 195 105q66 0 145 -49 q68 -41 115 -41q55 0 121 65z" />
<glyph unicode="&#xf2;" horiz-adv-x="1085" d="M954 504q0 -276 -123 -402q-113 -115 -288 -114q-176 0 -289 114q-123 125 -123 402q0 276 123 401q113 115 289 115t288 -115q123 -125 123 -401zM807 504q0 231 -80 311q-74 74 -184 74q-109 0 -183 -74q-82 -82 -81 -311q0 -229 81 -311q74 -74 183 -74 q111 0 187.5 77t76.5 308zM622 1217h-135l-221 313h176z" />
<glyph unicode="&#xf3;" horiz-adv-x="1085" d="M954 504q0 -276 -123 -402q-113 -115 -288 -114q-176 0 -289 114q-123 125 -123 402q0 276 123 401q113 115 289 115t288 -115q123 -125 123 -401zM807 504q0 231 -80 311q-74 74 -184 74q-109 0 -183 -74q-82 -82 -81 -311q0 -229 81 -311q74 -74 183 -74 q111 0 187.5 77t76.5 308zM799 1530l-221 -313h-135l180 313h176z" />
<glyph unicode="&#xf4;" horiz-adv-x="1085" d="M954 504q0 -276 -123 -402q-113 -115 -288 -114q-176 0 -289 114q-123 125 -123 402q0 276 123 401q113 115 289 115t288 -115q123 -125 123 -401zM807 504q0 231 -80 311q-74 74 -184 74q-109 0 -183 -74q-82 -82 -81 -311q0 -229 81 -311q74 -74 183 -74 q111 0 187.5 77t76.5 308zM869 1217h-142l-184 213l-184 -213h-142l256 313h140z" />
<glyph unicode="&#xf5;" horiz-adv-x="1085" d="M954 504q0 -276 -123 -402q-113 -115 -288 -114q-176 0 -289 114q-123 125 -123 402q0 276 123 401q113 115 289 115t288 -115q123 -125 123 -401zM807 504q0 231 -80 311q-74 74 -184 74q-109 0 -183 -74q-82 -82 -81 -311q0 -229 81 -311q74 -74 183 -74 q111 0 187.5 77t76.5 308zM865 1350q-104 -104 -195 -105q-63 0 -145 47q-74 43 -115 43q-55 0 -121 -65l-76 73q104 104 195 105q66 0 145 -49q68 -41 115 -41q55 0 121 65z" />
<glyph unicode="&#xf6;" horiz-adv-x="1085" d="M954 504q0 -276 -123 -402q-113 -115 -288 -114q-176 0 -289 114q-123 125 -123 402q0 276 123 401q113 115 289 115t288 -115q123 -125 123 -401zM807 504q0 231 -80 311q-74 74 -184 74q-109 0 -183 -74q-82 -82 -81 -311q0 -229 81 -311q74 -74 183 -74 q111 0 187.5 77t76.5 308zM834 1233h-148v182h148v-182zM400 1233h-148v182h148v-182z" />
<glyph unicode="&#xf7;" d="M623 827h-177v177h177v-177zM965 483h-861v138h861v-138zM623 100h-177v176h177v-176z" />
<glyph unicode="&#xf8;" horiz-adv-x="1085" d="M954 504q0 -276 -123 -402q-113 -115 -288 -114q-121 0 -215 55l-78 -133h-117l117 196q-119 123 -119 398q0 276 123 401q113 115 289 115q121 0 215 -55l80 133h114l-116 -197q118 -123 118 -397zM807 504q0 193 -49 272l-363 -612q63 -45 148 -45q111 0 187.5 77 t76.5 308zM690 846q-61 43 -147 43q-109 0 -183 -74q-82 -82 -81 -311q0 -188 51 -273z" />
<glyph unicode="&#xf9;" horiz-adv-x="1153" d="M967 0h-146v113q-109 -125 -284 -125q-164 0 -261 94q-102 100 -102 283v643h148v-621q0 -268 245 -268q117 0 184.5 69.5t67.5 198.5v621h148v-1008zM669 1217h-135l-221 313h176z" />
<glyph unicode="&#xfa;" horiz-adv-x="1153" d="M967 0h-146v113q-109 -125 -284 -125q-164 0 -261 94q-102 100 -102 283v643h148v-621q0 -268 245 -268q117 0 184.5 69.5t67.5 198.5v621h148v-1008zM825 1530l-221 -313h-135l180 313h176z" />
<glyph unicode="&#xfb;" horiz-adv-x="1153" d="M967 0h-146v113q-109 -125 -284 -125q-164 0 -261 94q-102 100 -102 283v643h148v-621q0 -268 245 -268q117 0 184.5 69.5t67.5 198.5v621h148v-1008zM895 1217h-142l-184 213l-184 -213h-142l256 313h140z" />
<glyph unicode="&#xfc;" horiz-adv-x="1153" d="M967 0h-146v113q-109 -125 -284 -125q-164 0 -261 94q-102 100 -102 283v643h148v-621q0 -268 245 -268q117 0 184.5 69.5t67.5 198.5v621h148v-1008zM860 1233h-148v182h148v-182zM426 1233h-148v182h148v-182z" />
<glyph unicode="&#xfd;" horiz-adv-x="913" d="M893 1008l-459 -1252q-29 -78 -72 -118q-74 -70 -196 -70h-64v131h45q74 0 107 26.5t59 98.5l72 196l-362 988h159l277 -809l274 809h160zM713 1530l-221 -313h-135l180 313h176z" />
<glyph unicode="&#xfe;" horiz-adv-x="1118" d="M985 504q0 -305 -123 -428q-88 -88 -246 -88q-182 0 -284 131v-570h-148v1909h148v-567q100 129 284 129q158 0 246 -88q123 -123 123 -428zM838 504q0 178 -43 266q-59 119 -209 119t-209 -119q-45 -88 -45 -266t45 -266q59 -119 209 -119t209 119q43 88 43 266z" />
<glyph unicode="&#xff;" horiz-adv-x="913" d="M893 1008l-459 -1252q-29 -78 -72 -118q-74 -70 -196 -70h-64v131h45q74 0 107 26.5t59 98.5l72 196l-362 988h159l277 -809l274 809h160zM748 1233h-148v182h148v-182zM314 1233h-148v182h148v-182z" />
<glyph unicode="&#x131;" horiz-adv-x="518" d="M332 0h-148v1008h148v-1008z" />
<glyph unicode="&#x152;" horiz-adv-x="2025" d="M1911 0h-893v152q-133 -164 -354 -164q-219 0 -371 151q-94 94 -119 230q-18 94 -18 360t18 361q25 135 119 229q152 152 371 151q221 0 354 -163v151h889v-137h-733q0 -80 2 -260v-260h622v-131h-622v-267q-2 -184 -2 -266h737v-137zM1018 729q0 242 -17 328 q-18 102 -83 170q-102 104 -252 104t-252 -104q-66 -68 -86 -170q-16 -88 -17 -328q0 -240 17 -328q20 -102 86 -170q102 -104 252 -104t252 104q66 68 83 170q17 86 17 328z" />
<glyph unicode="&#x153;" horiz-adv-x="1763" d="M1634 465h-680q0 -166 77 -257t220 -91q150 0 265 114l100 -88q-82 -82 -158 -116q-88 -39 -211 -39q-254 0 -362 194q-100 -195 -342 -194q-176 0 -289 114q-123 125 -123 402q0 276 123 401q113 115 289 115q244 0 344 -195q104 195 334 195q195 0 304 -131t109 -357 v-67zM1489 575q-4 102 -33 168q-63 152 -235 152t-236 -152q-25 -61 -31 -168h535zM807 504q0 231 -80 311q-74 74 -184 74q-109 0 -183 -74q-82 -82 -81 -311q0 -229 81 -311q74 -74 183 -74q111 0 187.5 77t76.5 308z" />
<glyph unicode="&#x178;" horiz-adv-x="1054" d="M1036 1458l-430 -856v-602h-155v602l-435 856h168l344 -698l340 698h168zM817 1616h-148v182h148v-182zM383 1616h-148v182h148v-182z" />
<glyph unicode="&#x2c6;" horiz-adv-x="1024" d="M838 1217h-142l-184 213l-184 -213h-142l256 313h140z" />
<glyph unicode="&#x2da;" horiz-adv-x="1024" d="M754 1407q0 -100 -71 -172t-171 -72t-171 72t-71 172t71 171t171 71t171 -71t71 -171zM653 1407q0 57 -41 98t-100 41t-100 -41t-41 -98t42 -99t99 -42q59 0 100 42t41 99z" />
<glyph unicode="&#x2dc;" horiz-adv-x="1024" d="M834 1350q-104 -104 -195 -105q-63 0 -145 47q-74 43 -115 43q-55 0 -121 -65l-76 73q104 104 195 105q66 0 145 -49q68 -41 115 -41q55 0 121 65z" />
<glyph unicode="&#x2000;" horiz-adv-x="1009" />
<glyph unicode="&#x2001;" horiz-adv-x="2018" />
<glyph unicode="&#x2002;" horiz-adv-x="1009" />
<glyph unicode="&#x2003;" horiz-adv-x="2018" />
<glyph unicode="&#x2004;" horiz-adv-x="672" />
<glyph unicode="&#x2005;" horiz-adv-x="504" />
<glyph unicode="&#x2006;" horiz-adv-x="336" />
<glyph unicode="&#x2007;" horiz-adv-x="336" />
<glyph unicode="&#x2008;" horiz-adv-x="252" />
<glyph unicode="&#x2009;" horiz-adv-x="403" />
<glyph unicode="&#x200a;" horiz-adv-x="112" />
<glyph unicode="&#x2010;" horiz-adv-x="872" d="M717 483h-561v138h561v-138z" />
<glyph unicode="&#x2011;" horiz-adv-x="872" d="M717 483h-561v138h561v-138z" />
<glyph unicode="&#x2012;" horiz-adv-x="872" d="M717 483h-561v138h561v-138z" />
<glyph unicode="&#x2013;" d="M963 483h-857v138h857v-138z" />
<glyph unicode="&#x2014;" horiz-adv-x="1871" d="M1716 483h-1560v140h1560v-140z" />
<glyph unicode="&#x2018;" horiz-adv-x="538" d="M358 1286h-178v172l178 162v-334z" />
<glyph unicode="&#x2019;" horiz-adv-x="538" d="M358 1286l-178 -162v334h178v-172z" />
<glyph unicode="&#x201a;" horiz-adv-x="538" d="M358 0l-178 -162v334h178v-172z" />
<glyph unicode="&#x201c;" horiz-adv-x="888" d="M709 1286h-181v172l181 162v-334zM358 1286h-178v172l178 162v-334z" />
<glyph unicode="&#x201d;" horiz-adv-x="888" d="M709 1286l-181 -162v334h181v-172zM358 1286l-178 -162v334h178v-172z" />
<glyph unicode="&#x201e;" horiz-adv-x="888" d="M709 0l-181 -162v334h181v-172zM358 0l-178 -162v334h178v-172z" />
<glyph unicode="&#x2022;" horiz-adv-x="1089" d="M879 684q0 -137 -97.5 -235.5t-236.5 -98.5q-137 0 -235.5 98.5t-98.5 235.5q0 139 98.5 236.5t235.5 97.5q139 0 236.5 -97.5t97.5 -236.5z" />
<glyph unicode="&#x2026;" horiz-adv-x="1550" d="M1370 0h-188v188h188v-188zM868 0h-188v188h188v-188zM369 0h-189v188h189v-188z" />
<glyph unicode="&#x202f;" horiz-adv-x="403" />
<glyph unicode="&#x2039;" horiz-adv-x="671" d="M512 119l-430 430l430 430v-184l-246 -246l246 -248v-182z" />
<glyph unicode="&#x203a;" horiz-adv-x="671" d="M590 549l-430 -430v182l248 248l-248 246v184z" />
<glyph unicode="&#x205f;" horiz-adv-x="504" />
<glyph unicode="&#x2122;" horiz-adv-x="1718" d="M1599 584h-116v630l-209 -413h-115l-209 413v-630h-119v874h119l267 -530l266 530h116v-874zM678 1350h-244v-766h-119v766h-241v108h604v-108z" />
<glyph unicode="&#xe000;" horiz-adv-x="1003" d="M0 1004h1004v-1004h-1004v1004z" />
</font>
</defs>
</svg>
